<svg xmlns="http://www.w3.org/2000/svg" width="32" height="32" viewBox="0 0 8.467 8.467"><path style="line-height:normal;font-variant-ligatures:normal;font-variant-position:normal;font-variant-caps:normal;font-variant-numeric:normal;font-variant-alternates:normal;font-feature-settings:normal;text-indent:0;text-align:start;text-decoration-line:none;text-decoration-style:solid;text-decoration-color:#000;text-transform:none;text-orientation:mixed;shape-padding:0;isolation:auto;mix-blend-mode:normal" d="M-384.068 453.703a.132.132 0 0 0-.118.135v.164a.133.133 0 1 0 .266 0v-.164a.132.132 0 0 0-.148-.135zm-.18.402-.191.01a.132.132 0 1 0 .011.264l.192-.008a.133.133 0 1 0-.012-.265zm.418.004a.132.132 0 0 0-.014.262l.207.043a.133.133 0 1 0 .053-.26l-.207-.04a.132.132 0 0 0-.04-.005zm-.22.32a.132.132 0 0 0-.13.15l.016.171a.132.132 0 1 0 .264-.023l-.016-.174a.132.132 0 0 0-.135-.123zm3.654 6.038a.132.132 0 0 0-.118.135v.164a.132.132 0 1 0 .264 0v-.164a.132.132 0 0 0-.146-.135zm-.374-.242a.132.132 0 0 0 .002.263l.19.008a.132.132 0 1 0 .012-.263l-.19-.008a.132.132 0 0 0-.014 0zm.813-.038a.132.132 0 0 0-.008.002l-.207.041a.133.133 0 1 0 .053.26l.205-.04a.133.133 0 0 0-.043-.262zm-.406-.457a.132.132 0 0 0-.13.122l-.017.173a.132.132 0 1 0 .264.026l.017-.174a.132.132 0 0 0-.134-.147zm-5.147-5.335a.132.132 0 0 0-.127.105c-.04.195-.115.265-.222.326-.108.061-.259.095-.412.174a.132.132 0 0 0 .04.25.6.6 0 0 1 .366.168c.087.091.148.227.172.432.015.133.196.16.252.039.073-.156.126-.308.2-.416a.418.418 0 0 1 .333-.2c.168-.019.15-.269-.02-.263-.18.004-.266-.041-.33-.12-.063-.077-.102-.206-.117-.374a.132.132 0 0 0-.135-.121z" color="#000" font-family="sans-serif" font-weight="400" overflow="visible" transform="translate(386.877 -453.106)"/><path fill="#ea6153" d="M-385.545 454.881c.028.088.041.097.099.167.057.07.121.075.21.112-.086.055-.17.086-.223.162-.045.065-.048.058-.08.125a.608.608 0 0 0-.135-.21c-.058-.061-.125-.078-.198-.116.06-.023.082-.03.143-.064.108-.068.137-.091.184-.176z" color="#000" font-family="sans-serif" font-weight="400" overflow="visible" style="line-height:normal;font-variant-ligatures:normal;font-variant-position:normal;font-variant-caps:normal;font-variant-numeric:normal;font-variant-alternates:normal;font-feature-settings:normal;text-indent:0;text-align:start;text-decoration-line:none;text-decoration-style:solid;text-decoration-color:#000;text-transform:none;text-orientation:mixed;shape-padding:0;isolation:auto;mix-blend-mode:normal" transform="translate(386.877 -453.106)"/><path d="M-999.516 882.89c-2.06-.088-4.143.972-5.765 2.518-1.622 1.546-2.805 3.598-2.93 5.64a6.304 6.304 0 0 0 0 .741c-.4-.012-.89-.01-1.27.049-1.162.18-2.345.503-3.412 1.086-.962.526-1.885 1.225-2.568 2.133-.869 1.154-1.544 2.545-1.75 4.015-.237 1.69-.11 3.57.709 5.145.922 1.77 2.56 3.156 4.318 4.002 1.584.761 3.486 1.144 5.256.789 2.17-.436 4.161-1.756 5.588-3.395.808-.927 1.108-2.12 1.389-3.152.204-.749.27-1.733.297-2.217 1.845-.11 3.727-1.007 5.261-2.3 1.784-1.504 3.122-3.56 3.27-5.686.15-2.164-.915-4.427-2.502-6.2-1.587-1.772-3.724-3.074-5.89-3.167z" color="#000" font-family="sans-serif" font-weight="400" overflow="visible" transform="translate(270.167 -232.673) scale(.26458)" style="line-height:normal;font-variant-ligatures:normal;font-variant-position:normal;font-variant-caps:normal;font-variant-numeric:normal;font-variant-alternates:normal;font-feature-settings:normal;text-indent:0;text-align:start;text-decoration-line:none;text-decoration-style:solid;text-decoration-color:#000;text-transform:none;text-orientation:mixed;shape-padding:0;isolation:auto;mix-blend-mode:normal"/><path fill="#fd982f" d="M-999.56 883.887c1.783.076 3.74 1.225 5.189 2.843 1.449 1.619 2.368 3.68 2.244 5.461-.12 1.743-1.29 3.62-2.916 4.99-1.625 1.371-3.674 2.214-5.418 2.061-1.683-.147-3.456-1.288-4.754-2.865-1.297-1.577-2.104-3.571-2-5.27.104-1.691 1.147-3.57 2.621-4.976 1.475-1.405 3.356-2.316 5.033-2.244z" color="#000" font-family="sans-serif" font-weight="400" overflow="visible" transform="translate(270.167 -232.673) scale(.26458)" style="line-height:normal;font-variant-ligatures:normal;font-variant-position:normal;font-variant-caps:normal;font-variant-numeric:normal;font-variant-alternates:normal;font-feature-settings:normal;text-indent:0;text-align:start;text-decoration-line:none;text-decoration-style:solid;text-decoration-color:#000;text-transform:none;text-orientation:mixed;shape-padding:0;isolation:auto;mix-blend-mode:normal"/><path fill="#fd982f" d="m-1008.27 892.8.2.009c.068.33.16.656.271.982-.465-.061-.995-.122-1.46-.049-1.128.178-2.295.589-3.212 1.36-1.097.923-2.085 2.208-2.363 3.697-.346 1.855-.086 4.068 1.168 5.596 1.302 1.586 3.52 2.436 5.535 2.34 1.896-.09 3.725-1.189 4.895-2.622.612-.75.925-1.897 1.144-2.892.107-.485.18-.927.23-1.26.394.126.796.216 1.202.26-.038.506-.116 1.452-.258 1.975-.282 1.037-.573 2.07-1.174 2.76-1.297 1.488-3.137 2.689-5.035 3.07-1.494.3-3.204-.025-4.621-.707-1.59-.765-3.074-2.042-3.867-3.567-.686-1.317-.821-3.002-.606-4.539.176-1.255.779-2.506 1.565-3.55.571-.76 1.376-1.388 2.244-1.862.928-.508 2.002-.807 3.086-.975.233-.036.674-.034 1.056-.025z" color="#000" font-family="sans-serif" font-weight="400" overflow="visible" transform="translate(270.167 -232.673) scale(.26458)" style="line-height:normal;font-variant-ligatures:normal;font-variant-position:normal;font-variant-caps:normal;font-variant-numeric:normal;font-variant-alternates:normal;font-feature-settings:normal;text-indent:0;text-align:start;text-decoration-line:none;text-decoration-style:solid;text-decoration-color:#000;text-transform:none;text-orientation:mixed;shape-padding:0;isolation:auto;mix-blend-mode:normal"/><path fill="#fad741" d="M-1008.568 894.72c.219.011.462.033.681.063.292.04.389.062.526.088.368.757.836 1.48 1.379 2.14.887 1.08 1.976 1.994 3.167 2.575-.04.295-.108.768-.251 1.42-.207.938-.575 2.018-.946 2.473-1 1.224-2.632 2.186-4.162 2.26-1.687.08-3.669-.7-4.719-1.98-.985-1.2-1.26-3.16-.959-4.775.217-1.163 1.056-2.3 2.024-3.115.727-.611 1.729-.98 2.723-1.137.121-.019.317-.022.537-.011z" color="#000" font-family="sans-serif" font-weight="400" overflow="visible" transform="translate(270.167 -232.673) scale(.26458)" style="line-height:normal;font-variant-ligatures:normal;font-variant-position:normal;font-variant-caps:normal;font-variant-numeric:normal;font-variant-alternates:normal;font-feature-settings:normal;text-indent:0;text-align:start;text-decoration-line:none;text-decoration-style:solid;text-decoration-color:#000;text-transform:none;text-orientation:mixed;shape-padding:0;isolation:auto;mix-blend-mode:normal"/><path d="M-381.174 454.568c-.422-.018-.844.198-1.172.51-.327.312-.566.727-.592 1.145-.025.419.162.857.45 1.207.288.35.682.617 1.103.654.434.038.888-.16 1.248-.463.36-.303.632-.719.662-1.154.031-.443-.185-.9-.505-1.258s-.75-.622-1.194-.64z" color="#000" font-family="sans-serif" font-weight="400" overflow="visible" style="line-height:normal;font-variant-ligatures:normal;font-variant-position:normal;font-variant-caps:normal;font-variant-numeric:normal;font-variant-alternates:normal;font-feature-settings:normal;text-indent:0;text-align:start;text-decoration-line:none;text-decoration-style:solid;text-decoration-color:#000;text-transform:none;text-orientation:mixed;shape-padding:0;isolation:auto;mix-blend-mode:normal" transform="translate(386.877 -453.106)"/><path fill="#fad741" d="M-381.186 454.832c.343.015.725.238 1.008.555.284.316.463.72.44 1.062-.023.334-.25.7-.569.969-.318.268-.72.432-1.054.402-.323-.028-.668-.25-.922-.558-.254-.309-.41-.697-.39-1.024.02-.325.223-.694.51-.968.29-.275.656-.452.977-.438z" color="#000" font-family="sans-serif" font-weight="400" overflow="visible" style="line-height:normal;font-variant-ligatures:normal;font-variant-position:normal;font-variant-caps:normal;font-variant-numeric:normal;font-variant-alternates:normal;font-feature-settings:normal;text-indent:0;text-align:start;text-decoration-line:none;text-decoration-style:solid;text-decoration-color:#000;text-transform:none;text-orientation:mixed;shape-padding:0;isolation:auto;mix-blend-mode:normal" transform="translate(386.877 -453.106)"/><path d="M-381.162 455.537a.292.292 0 0 0-.219.07c-.179.161-.298.395-.412.524a.283.283 0 0 0-.066.205c.003.066.021.13.06.185.133.193.345.353.496.467.088.067.19.054.264.026a.433.433 0 0 0 .183-.13c.095-.114.279-.26.374-.476a.475.475 0 0 0 .04-.158.255.255 0 0 0-.068-.203c-.159-.159-.305-.326-.451-.438a.359.359 0 0 0-.201-.072z" color="#000" font-family="sans-serif" font-weight="400" overflow="visible" style="line-height:normal;font-variant-ligatures:normal;font-variant-position:normal;font-variant-caps:normal;font-variant-numeric:normal;font-variant-alternates:normal;font-feature-settings:normal;text-indent:0;text-align:start;text-decoration-line:none;text-decoration-style:solid;text-decoration-color:#000;text-transform:none;text-orientation:mixed;shape-padding:0;isolation:auto;mix-blend-mode:normal" transform="translate(386.877 -453.106)"/><path fill="#fbb738" d="M-381.176 455.8a.127.127 0 0 1 .055.018c.11.084.26.249.426.414-.012-.011-.01-.017-.01 0a.243.243 0 0 1-.02.069c-.057.13-.214.267-.336.416a.213.213 0 0 1-.07.049c-.026.01-.026.003-.012.013-.148-.112-.345-.271-.44-.408a.124.124 0 0 1-.013-.047c0-.017.006-.024 0-.017.15-.17.27-.395.39-.502-.004.004.008-.005.03-.004z" color="#000" font-family="sans-serif" font-weight="400" overflow="visible" style="line-height:normal;font-variant-ligatures:normal;font-variant-position:normal;font-variant-caps:normal;font-variant-numeric:normal;font-variant-alternates:normal;font-feature-settings:normal;text-indent:0;text-align:start;text-decoration-line:none;text-decoration-style:solid;text-decoration-color:#000;text-transform:none;text-orientation:mixed;shape-padding:0;isolation:auto;mix-blend-mode:normal" transform="translate(386.877 -453.106)"/><path d="M-383.242 458.018c-.217 0-.442-.041-.645.011-.035.01-.092.024-.15.06a.292.292 0 0 0-.133.206c-.027.232.068.459.078.6a.258.258 0 0 0 .106.183c.05.04.105.068.17.078.226.037.49.005.677-.017a.27.27 0 0 0 .203-.155.37.37 0 0 0 .041-.209v-.002c-.013-.127.015-.339-.074-.54h-.002v-.003a.416.416 0 0 0-.084-.129.263.263 0 0 0-.187-.084z" color="#000" font-family="sans-serif" font-weight="400" overflow="visible" style="line-height:normal;font-variant-ligatures:normal;font-variant-position:normal;font-variant-caps:normal;font-variant-numeric:normal;font-variant-alternates:normal;font-feature-settings:normal;text-indent:0;text-align:start;text-decoration-line:none;text-decoration-style:solid;text-decoration-color:#000;text-transform:none;text-orientation:mixed;shape-padding:0;isolation:auto;mix-blend-mode:normal" transform="translate(386.877 -453.106)"/><path fill="#fbb738" d="M-383.242 458.281c-.011 0-.012-.005-.002.006a.2.2 0 0 1 .031.051c.048.11.036.29.055.465a.16.16 0 0 1-.014.062c-.009.019-.01.011 0 .01-.184.023-.435.047-.602.02a.137.137 0 0 1-.046-.022c-.013-.01-.007-.016-.006.002-.015-.212-.095-.426-.08-.548 0-.01-.003-.005.011-.014a.306.306 0 0 1 .074-.027c.109-.029.337-.004.578-.004z" color="#000" font-family="sans-serif" font-weight="400" overflow="visible" style="line-height:normal;font-variant-ligatures:normal;font-variant-position:normal;font-variant-caps:normal;font-variant-numeric:normal;font-variant-alternates:normal;font-feature-settings:normal;text-indent:0;text-align:start;text-decoration-line:none;text-decoration-style:solid;text-decoration-color:#000;text-transform:none;text-orientation:mixed;shape-padding:0;isolation:auto;mix-blend-mode:normal" transform="translate(386.877 -453.106)"/><path d="M3.216 1.994c.07-.001.158.068.156.137 0 .065-.086.126-.152.124-.065-.002-.146-.066-.146-.131 0-.064.078-.13.142-.13zm-.413.74c.069-.001.157.068.156.137-.001.065-.087.126-.152.124-.066-.002-.146-.066-.146-.131 0-.064.077-.13.142-.13zm4.37 3.435c.069 0 .157.068.156.137-.001.066-.087.126-.152.125-.066-.002-.146-.066-.147-.132 0-.064.078-.13.142-.13z"/><path style="line-height:normal;font-variant-ligatures:normal;font-variant-position:normal;font-variant-caps:normal;font-variant-numeric:normal;font-variant-alternates:normal;font-feature-settings:normal;text-indent:0;text-align:start;text-decoration-line:none;text-decoration-style:solid;text-decoration-color:#000;text-transform:none;text-orientation:mixed;shape-padding:0;isolation:auto;mix-blend-mode:normal" d="M-383.62 457.227a.066.066 0 0 0-.026.119l.185.136a.066.066 0 1 0 .078-.105l-.185-.137a.066.066 0 0 0-.051-.013zm-.253.044a.066.066 0 0 0-.04.118l.194.17a.066.066 0 1 0 .088-.1l-.195-.17a.066.066 0 0 0-.047-.018zm-.252.114a.066.066 0 0 0-.018.12l.202.126a.067.067 0 1 0 .07-.113l-.203-.123a.066.066 0 0 0-.051-.01zm-.232.127a.066.066 0 0 0-.022.127l.219.1a.066.066 0 1 0 .055-.122l-.22-.1a.066.066 0 0 0-.032-.005zm-.19.181a.066.066 0 0 0-.021.127l.185.094a.066.066 0 1 0 .06-.117l-.185-.096a.066.066 0 0 0-.039-.008zm-.16.166a.066.066 0 0 0-.03.121l.15.1a.066.066 0 1 0 .073-.11l-.148-.099a.066.066 0 0 0-.045-.012zm-.088.194a.066.066 0 0 0-.031.125l.21.113a.066.066 0 1 0 .063-.117l-.21-.111a.066.066 0 0 0-.032-.01zm-.039.236a.066.066 0 0 0-.023.123l.148.092a.066.066 0 1 0 .068-.113l-.148-.092a.066.066 0 0 0-.045-.01zm.006.244a.066.066 0 0 0-.028.123l.159.098a.066.066 0 1 0 .07-.111l-.158-.1a.066.066 0 0 0-.043-.01zm.02.248a.066.066 0 0 0-.007.131l.211.053a.066.066 0 1 0 .032-.127l-.211-.055a.066.066 0 0 0-.026-.002zm.025.196a.066.066 0 0 0-.006.128l.244.075a.066.066 0 1 0 .039-.127l-.244-.074a.066.066 0 0 0-.033-.002zm.103.23a.066.066 0 0 0-.008.13l.24.063a.067.067 0 1 0 .034-.129l-.24-.062a.066.066 0 0 0-.026-.002zm.135.244a.067.067 0 0 0 .008.133l.215.008a.066.066 0 1 0 .006-.133l-.215-.008a.066.066 0 0 0-.014 0zm3.346-4.48a.066.066 0 0 0-.028.119l.186.137a.066.066 0 1 0 .078-.108l-.185-.137a.066.066 0 0 0-.051-.011zm-.262.045a.066.066 0 0 0-.031.117l.195.168a.066.066 0 1 0 .086-.1l-.193-.17a.066.066 0 0 0-.057-.015zm-.236.111a.066.066 0 0 0-.026.123l.203.125a.066.066 0 1 0 .069-.113l-.203-.125a.066.066 0 0 0-.043-.01zm-.246.129a.066.066 0 0 0-.016.127l.219.098a.066.066 0 1 0 .054-.12l-.218-.1a.066.066 0 0 0-.04-.005zm-.184.182a.066.066 0 0 0-.021.125l.185.095a.067.067 0 1 0 .06-.119l-.185-.094a.066.066 0 0 0-.039-.008zm-.152.164a.066.066 0 0 0-.037.123l.148.1a.067.067 0 1 0 .074-.112l-.148-.1a.066.066 0 0 0-.037-.011zm-.102.195a.066.066 0 0 0-.023.125l.209.111a.066.066 0 1 0 .062-.117l-.21-.111a.066.066 0 0 0-.038-.008zm-.033.236a.066.066 0 0 0-.023.123l.148.09a.066.066 0 1 0 .068-.113l-.148-.09a.066.066 0 0 0-.045-.01zm.012.242a.066.066 0 0 0-.032.123l.157.1a.066.066 0 1 0 .07-.111l-.156-.1a.066.066 0 0 0-.04-.012zm.013.25a.066.066 0 0 0-.006.13l.211.054a.067.067 0 1 0 .033-.129l-.21-.053a.066.066 0 0 0-.028-.002zm.034.194a.066.066 0 0 0-.014.129l.244.076a.066.066 0 1 0 .04-.127l-.245-.074a.066.066 0 0 0-.025-.004zm.095.232a.066.066 0 0 0-.008.13l.24.062a.066.066 0 1 0 .034-.127l-.24-.063a.066.066 0 0 0-.026-.002zm.135.244a.066.066 0 0 0 .008.131l.217.008a.066.066 0 1 0 .004-.13l-.215-.009a.066.066 0 0 0-.014 0z" color="#000" font-family="sans-serif" font-weight="400" overflow="visible" transform="translate(386.877 -453.106)"/></svg>