<?xml version="1.0" standalone="no"?>
<!DOCTYPE svg PUBLIC "-//W3C//DTD SVG 20010904//EN"
 "http://www.w3.org/TR/2001/REC-SVG-20010904/DTD/svg10.dtd">
<svg version="1.0" xmlns="http://www.w3.org/2000/svg"
 width="512.000000pt" height="512.000000pt" viewBox="0 0 512.000000 512.000000"
 preserveAspectRatio="xMidYMid meet">

<g transform="translate(0.000000,512.000000) scale(0.100000,-0.100000)"
fill="#000000" stroke="none">
<path d="M1210 4737 c-119 -36 -196 -82 -285 -172 -184 -183 -235 -407 -206
-895 15 -243 32 -404 76 -689 46 -293 46 -300 -4 -343 -21 -18 -142 -95 -267
-171 -270 -163 -257 -154 -277 -194 -26 -49 -21 -142 18 -329 19 -93 35 -199
35 -235 0 -61 -4 -75 -61 -185 -99 -193 -190 -357 -216 -392 -13 -17 -19 -32
-12 -32 46 0 472 276 568 368 42 40 62 69 70 97 18 70 31 216 31 357 l0 137
38 6 c254 42 392 79 446 120 80 61 181 237 241 420 37 111 80 318 90 430 16
189 13 187 57 20 63 -241 174 -565 217 -634 12 -19 68 -4 235 62 271 106 595
283 791 430 119 89 321 297 388 398 31 47 57 91 57 97 0 26 -84 185 -149 281
-315 470 -777 796 -1391 981 -139 41 -353 90 -393 89 -12 0 -56 -10 -97 -22z"/>
<path d="M4380 3653 c-232 -41 -528 -169 -789 -342 -75 -50 -86 -61 -113 -119
-62 -130 -194 -278 -356 -396 -29 -21 -51 -40 -49 -42 2 -2 39 1 83 7 166 23
337 96 456 193 l65 54 26 -34 c56 -69 61 -137 19 -259 -118 -348 -548 -752
-1067 -1001 -260 -125 -405 -169 -560 -169 -89 0 -106 3 -157 28 -31 15 -73
46 -93 69 -43 47 -96 155 -99 198 -1 29 3 32 64 53 70 25 210 96 249 126 24
18 23 18 -100 24 -114 5 -187 19 -237 46 -37 20 -310 -176 -449 -322 -316
-333 -396 -731 -216 -1080 108 -209 312 -344 488 -322 104 13 253 100 714 420
635 440 905 600 1220 724 129 51 178 66 481 146 467 124 675 220 836 387 130
133 216 297 273 519 42 162 55 273 48 409 -12 232 -77 400 -208 532 -144 147
-300 191 -529 151z"/>
</g>
</svg>
